<svg width="818" height="818" xmlns="http://www.w3.org/2000/svg" xml:space="preserve" version="1.1">

 <g>
  <title>Layer 1</title>
  <g id="Hintergrund_xA0_Bild_00000109729548081541152880000012710348783508522155_">
   <g id="svg_1">
    <path id="svg_2" fill="#02FCA2" d="m687.30962,180.8925c-49.25398,-36.70594 -101.32247,-68.48649 -151.74917,-103.90245c-17.94252,18.64615 -34.12597,37.40957 -42.2177,62.15383c-8.56081,25.91698 -7.85718,52.18577 -6.68447,78.80637c0.46909,11.84441 1.17271,23.68882 1.6418,35.6505c0.11727,2.11088 0.35181,4.80813 -0.70363,6.21538c-7.62264,9.96807 -9.96807,22.28156 -15.71437,33.07053c-3.63541,6.80174 -7.50537,13.48621 -11.60987,20.63976c-32.95326,-16.88708 -65.78925,-33.1878 -102.26065,-42.2177c-1.17271,-11.60987 -1.28999,-23.10246 -0.35181,-34.59506c3.75268,-45.14948 26.73788,-80.09635 60.39476,-108.24149c20.40522,-17.12162 42.68678,-32.13236 67.78286,-41.98316c13.13439,-5.15994 21.46066,-15.71437 26.15152,-28.49695c5.39448,-14.77619 10.20261,-18.88069 26.03425,-8.67808c25.33062,16.30072 50.19215,33.53962 75.28823,50.30942c20.75703,13.83802 41.74861,27.32423 62.38838,41.3968c14.77619,10.08534 30.37329,18.88069 44.44585,31.07692c-3.75268,10.6717 -9.8508,20.05341 -15.94891,29.43512c-1.87634,2.81451 -2.93178,5.39448 -1.75907,8.67808c9.96807,27.32423 11.4926,55.58664 9.61625,84.20085c-1.99361,29.9042 -8.91263,58.87023 -18.76342,87.24991c-0.35181,1.05544 -0.8209,2.22816 -1.40726,3.63541c-23.92336,5.39448 -47.84672,4.9254 -71.77009,0.23454c-32.60144,-6.5672 -62.85746,-19.34978 -92.05804,-34.94687c-13.25167,-7.03628 -26.38606,-14.30711 -39.52046,-21.46066c-1.6418,-0.8209 -2.93178,-1.87634 -3.86996,-3.98723c9.26444,-14.65892 21.46066,-25.56516 38.23047,-32.48417c19.11524,-7.73991 38.46501,-14.18984 58.40115,-18.76342c9.8508,-2.22816 19.70159,-5.04267 29.78693,-6.09811c13.83802,-1.40726 21.69521,-10.55442 29.0833,-20.52249c11.60987,-15.59709 22.98519,-31.42873 34.36052,-47.26037c4.22177,-6.09811 8.209,-12.3135 12.78258,-19.11524z" class="st0"/>
    <path id="svg_3" fill="#024A83" d="m331.97733,217.24663c-2.34543,14.77619 -3.40087,29.78693 -2.69724,45.14948c-7.03628,1.40726 -13.60348,0.11727 -20.17068,-0.23454c-37.64411,-2.22816 -73.88097,3.04906 -107.88967,20.40522c-15.01074,7.62264 -28.61422,17.47344 -39.87227,30.13875c-1.99361,2.22816 -3.40087,4.57358 -3.51814,7.73991c-0.8209,29.9042 6.68447,57.46298 22.04702,83.02814c17.35616,28.84876 41.86588,50.07488 70.59737,67.43105c34.8296,20.87431 72.23917,33.65689 111.8769,40.5759c12.19622,2.11088 24.62699,2.81451 37.76139,4.22177c-3.40087,53.82756 -3.75268,107.53786 0.35181,162.53814c-10.6717,-6.5672 -20.05341,-12.19622 -29.43512,-17.94252c-22.28156,-13.83802 -43.8595,-28.84876 -63.79563,-45.97038c-37.17503,-31.89782 -70.83192,-67.07923 -99.44613,-107.06877c-23.57155,-32.95326 -43.62495,-67.66559 -59.45659,-105.07516c-12.19622,-28.84876 -22.04702,-58.28388 -27.08969,-89.12625c-5.7463,-34.71233 -7.3881,-69.54193 -2.81451,-104.4888c4.22177,-31.78054 14.77619,-61.21566 34.59506,-86.89809c2.81451,1.28999 5.7463,2.4627 8.44354,3.98723c19.93614,10.78897 39.63773,21.69521 59.57386,32.3669c20.28795,10.90624 40.69317,21.34339 60.86385,32.24963c17.12162,8.67808 33.53962,17.82525 50.07488,26.97242z" class="st1"/>
    <path id="svg_4" fill="#02FCA2" d="m678.74881,416.95979c-55.00028,115.51231 -139.08386,199.94771 -249.67077,260.92883c-0.8209,-13.01712 -2.11088,-24.86153 -2.34543,-36.70594c-0.46909,-27.32423 -0.70363,-54.64846 -0.70363,-81.9727c0,-41.04498 4.9254,-81.62088 13.83802,-121.7277c6.5672,-29.43512 17.47344,-57.34571 30.49056,-84.55267c0.35181,-0.8209 1.05544,-1.52453 2.22816,-2.93178c62.74019,38.23047 127.23945,71.53554 206.16309,66.96196z" class="st0"/>
    <path id="svg_5" fill="#02D0DA" d="m184.33266,329.59261c28.49695,-34.8296 109.53147,-48.19854 149.87283,-33.77416c12.3135,48.08127 39.63773,84.4354 87.48445,103.6679c-8.44354,29.0833 -15.94891,57.69752 -20.05341,87.60172c-10.6717,1.17271 -21.10885,-0.58636 -31.31146,-2.22816c-36.4714,-5.7463 -70.94919,-17.00435 -102.847,-36.4714c-18.41161,-11.25805 -35.41596,-23.92336 -49.60579,-39.98954c-19.23251,-21.92975 -31.31146,-47.26037 -33.65689,-76.69548c0,-0.70363 0.11727,-1.52453 0.11727,-2.11088z" class="st2"/>
    <path id="svg_6" fill="#02D0DA" d="m331.97733,217.24663c-16.53526,-9.14717 -32.95326,-18.29434 -49.60579,-27.32423c-20.28795,-10.90624 -40.69317,-21.46066 -60.86385,-32.24963c-19.93614,-10.6717 -39.755,-21.57793 -59.57386,-32.3669c-2.69724,-1.52453 -5.62903,-2.57997 -8.44354,-3.98723c15.59709,-21.10885 36.82321,-34.24324 60.86385,-43.50768c40.22408,-15.47982 81.03453,-13.36894 121.7277,-2.4627c22.86792,6.09811 44.6804,14.65892 64.38199,28.84876c-6.21538,6.33265 -12.07895,12.3135 -18.05979,18.41161c-25.09608,25.7997 -41.27953,56.29026 -49.25398,91.35441c-0.23454,1.17271 -0.8209,2.22816 -1.17271,3.2836z" class="st2"/>
    <path id="svg_7" fill="#02FCA2" d="m364.69604,302.50292c28.49695,9.49898 54.41392,21.57793 80.56544,34.71233c-4.57358,12.07895 -9.26444,23.68882 -15.36255,34.94687c-31.78054,-13.95529 -54.53119,-35.41596 -65.20289,-69.6592z" class="st0"/>
    <path id="svg_8" fill="#02FCA2" d="m715.10294,21.52069c0.11727,13.13439 -7.50537,20.28795 -21.57793,20.40522c-13.72075,0.11727 -23.10246,-7.97445 -23.10246,-20.05341c0,-12.54804 8.67808,-20.05341 23.45428,-20.05341c13.01712,0 21.10885,7.62264 21.22612,19.70159z" class="st0"/>
    <path id="svg_9" fill="#02FCA2" d="m739.37811,99.27162c-0.70363,14.18984 -9.0299,22.16429 -21.81248,21.10885c-12.3135,-0.93817 -21.22612,-11.25805 -20.52249,-23.92336c0.58636,-10.31988 9.38171,-18.05979 20.17068,-17.59071c14.07257,0.58636 22.86792,8.67808 22.16429,20.40522z" class="st0"/>
    <path id="svg_10" fill="#02FCA2" d="m650.4864,48.25857c10.6717,0 18.41161,7.27083 18.29434,17.00435c-0.11727,8.79535 -7.85718,16.06618 -16.76981,16.06618c-9.49898,-0.11727 -18.76342,-8.56081 -18.88069,-17.23889c-0.23454,-8.91263 7.50537,-15.94891 17.35616,-15.83164z" class="st0"/>
   </g>
  </g>
  <g id="Green_Blue_LAB">
   <g id="svg_11">
    <path id="svg_12" fill="#014884" d="m38.79887,818.08891c-12.66531,0 -22.28156,-3.2836 -28.84876,-9.96807c-6.5672,-6.68447 -9.8508,-15.83164 -9.8508,-27.67605c0,-12.54804 3.2836,-22.39883 9.96807,-29.55239c6.68447,-7.15355 16.53526,-10.78897 29.66966,-10.78897c4.57358,0 8.67808,0.23454 12.3135,0.8209c3.63541,0.46909 7.15355,1.28999 10.43715,2.34543l0,13.60348c-3.2836,-1.17271 -6.80174,-1.99361 -10.43715,-2.57997c-3.63541,-0.46909 -7.3881,-0.8209 -11.14078,-0.8209c-9.0299,0 -15.36255,2.22816 -19.11524,6.68447c-3.75268,4.45631 -5.62903,11.14078 -5.62903,20.17068c0,16.18345 7.62264,24.27518 22.86792,24.27518c2.69724,0 5.27721,-0.23454 7.73991,-0.58636c2.57997,-0.46909 4.80813,-0.93817 6.80174,-1.75907l0,-17.59071l-17.59071,0l0,-10.08534l30.95965,0l0,36.94049c-2.57997,1.6418 -6.21538,3.16633 -10.78897,4.45631c-4.57358,1.40726 -10.43715,2.11088 -17.35616,2.11088z" class="st3"/>
    <path id="svg_13" fill="#014884" d="m77.96751,816.91619l0,-55.58664l14.65892,0l0.70363,5.7463c2.4627,-1.52453 5.62903,-2.93178 9.26444,-4.33904c3.75268,-1.28999 7.3881,-2.11088 11.02351,-2.57997l0,11.96168c-2.11088,0.35181 -4.45631,0.8209 -6.91901,1.40726c-2.4627,0.58636 -4.9254,1.28999 -7.15355,2.11088c-2.22816,0.8209 -4.22177,1.6418 -5.7463,2.4627l0,38.81683l-15.83164,0z" class="st3"/>
    <path id="svg_14" fill="#014884" d="m148.33034,818.08891c-9.61625,0 -17.23889,-2.34543 -22.86792,-7.27083c-5.62903,-4.80813 -8.44354,-12.07895 -8.44354,-21.81248c0,-8.79535 2.34543,-15.83164 7.15355,-21.10885c4.69086,-5.15994 11.72714,-7.85718 21.10885,-7.85718c8.56081,0 15.24528,2.22816 19.81886,6.80174c4.57358,4.45631 6.91901,10.43715 6.91901,17.70798l0,10.08534l-40.22408,0c0.8209,4.45631 2.93178,7.50537 6.09811,9.14717c3.2836,1.6418 7.85718,2.4627 13.83802,2.4627c2.93178,0 5.98084,-0.23454 9.14717,-0.8209c3.04906,-0.58636 5.7463,-1.28999 7.97445,-2.11088l0,11.25805c-2.57997,1.17271 -5.62903,2.11088 -9.0299,2.57997c-3.63541,0.58636 -7.3881,0.93817 -11.4926,0.93817zm-16.65254,-33.1878l26.38606,0l0,-3.04906c0,-3.16633 -0.93817,-5.7463 -2.81451,-7.50537s-5.04267,-2.81451 -9.49898,-2.81451c-5.27721,0 -8.91263,1.05544 -11.02351,3.16633c-1.99361,2.11088 -3.04906,5.51175 -3.04906,10.20261z" class="st3"/>
    <path id="svg_15" fill="#014884" d="m211.89143,818.08891c-9.61625,0 -17.23889,-2.34543 -22.86792,-7.27083c-5.62903,-4.80813 -8.44354,-12.07895 -8.44354,-21.81248c0,-8.79535 2.34543,-15.83164 7.03628,-21.10885c4.69086,-5.15994 11.84441,-7.85718 21.22612,-7.85718c8.56081,0 15.12801,2.22816 19.70159,6.80174c4.57358,4.45631 6.91901,10.43715 6.91901,17.70798l0,10.08534l-40.22408,0c0.8209,4.45631 2.93178,7.50537 6.09811,9.14717c3.2836,1.6418 7.85718,2.4627 13.83802,2.4627c2.93178,0 5.98084,-0.23454 9.14717,-0.8209c3.04906,-0.58636 5.7463,-1.28999 7.97445,-2.11088l0,11.25805c-2.57997,1.17271 -5.62903,2.11088 -9.0299,2.57997c-3.51814,0.58636 -7.27083,0.93817 -11.37532,0.93817zm-16.65254,-33.1878l26.38606,0l0,-3.04906c0,-3.16633 -0.93817,-5.7463 -2.81451,-7.50537c-1.87634,-1.87634 -5.04267,-2.81451 -9.49898,-2.81451c-5.27721,0 -8.91263,1.05544 -11.02351,3.16633c-1.99361,2.11088 -3.04906,5.51175 -3.04906,10.20261z" class="st3"/>
    <path id="svg_16" fill="#014884" d="m246.48649,816.91619l0,-55.58664l14.65892,0l0.58636,5.27721c2.22816,-1.75907 5.15994,-3.2836 8.67808,-4.45631c3.51814,-1.28999 7.15355,-1.99361 11.02351,-1.99361c7.3881,0 12.66531,1.75907 16.06618,5.15994c3.40087,3.40087 5.04267,8.79535 5.04267,15.94891l0,35.6505l-15.83164,0l0,-34.8296c0,-3.75268 -0.70363,-6.44993 -2.34543,-7.97445c-1.52453,-1.52453 -4.33904,-2.34543 -8.44354,-2.34543c-2.4627,0 -4.80813,0.58636 -7.27083,1.6418c-2.4627,1.05544 -4.45631,2.4627 -6.09811,4.1045l0,39.40318l-16.06618,0z" class="st3"/>
    <path id="svg_17" fill="#014884" d="m341.1245,816.91619l0,-75.52277l38.23047,0c7.62264,0 13.25167,1.75907 17.00435,5.39448c3.75268,3.51814 5.62903,8.56081 5.62903,15.01074c0,4.1045 -0.8209,7.3881 -2.34543,10.20261c-1.52453,2.69724 -3.63541,4.80813 -6.33265,6.21538c3.51814,1.05544 6.33265,2.93178 8.44354,5.51175c2.11088,2.57997 3.04906,6.21538 3.04906,11.14078c0,7.27083 -2.11088,12.78258 -6.09811,16.41799c-4.1045,3.75268 -10.08534,5.62903 -17.70798,5.62903l-39.87227,0zm15.83164,-44.21131l19.46705,0c3.86996,0 6.5672,-0.8209 8.209,-2.4627s2.4627,-4.1045 2.4627,-7.15355c0,-3.40087 -0.8209,-5.86357 -2.4627,-7.50537c-1.6418,-1.6418 -4.80813,-2.4627 -9.38171,-2.4627l-18.29434,0l0,19.58432zm0,32.60144l20.05341,0c3.98723,0 6.91901,-0.8209 8.79535,-2.4627s2.81451,-4.57358 2.81451,-8.67808c0,-3.40087 -0.93817,-5.86357 -2.81451,-7.50537c-1.87634,-1.6418 -5.15994,-2.4627 -9.8508,-2.4627l-18.99796,0l0,21.10885z" class="st3"/>
    <path id="svg_18" fill="#014884" d="m431.18892,818.08891c-5.39448,0 -9.38171,-1.28999 -11.72714,-3.75268c-2.4627,-2.4627 -3.75268,-6.44993 -3.75268,-11.96168l0,-64.49926l15.83164,0l0,63.20928c0,1.99361 0.35181,3.2836 1.17271,4.1045c0.8209,0.70363 1.87634,1.17271 3.40087,1.17271c1.99361,0 3.86996,-0.23454 5.51175,-0.8209l0,10.90624c-2.93178,1.05544 -6.44993,1.6418 -10.43715,1.6418z" class="st3"/>
    <path id="svg_19" fill="#014884" d="m468.24667,818.08891c-6.68447,0 -11.84441,-1.87634 -15.47982,-5.62903c-3.75268,-3.75268 -5.62903,-9.14717 -5.62903,-16.41799l0,-34.8296l15.83164,0l0,34.47779c0,3.75268 0.93817,6.44993 2.69724,8.209c1.75907,1.6418 4.45631,2.4627 8.09173,2.4627c2.69724,0 5.27721,-0.58636 7.62264,-1.6418c2.34543,-1.05544 4.22177,-2.4627 5.86357,-4.1045l0,-39.40318l15.83164,0l0,55.58664l-14.65892,0l-0.58636,-5.27721c-2.34543,1.87634 -5.04267,3.40087 -8.209,4.69086c-3.16633,1.17271 -7.03628,1.87634 -11.37532,1.87634z" class="st3"/>
    <path id="svg_20" fill="#014884" d="m545.52852,818.08891c-9.61625,0 -17.23889,-2.34543 -22.86792,-7.27083c-5.62903,-4.80813 -8.44354,-12.07895 -8.44354,-21.81248c0,-8.79535 2.34543,-15.83164 7.03628,-21.10885c4.69086,-5.15994 11.72714,-7.85718 21.10885,-7.85718c8.56081,0 15.24528,2.22816 19.81886,6.80174c4.57358,4.45631 6.80174,10.43715 6.80174,17.70798l0,10.08534l-40.10681,0c0.8209,4.45631 2.93178,7.50537 6.09811,9.14717c3.2836,1.6418 7.85718,2.4627 13.83802,2.4627c2.93178,0 5.98084,-0.23454 9.14717,-0.8209c3.04906,-0.58636 5.7463,-1.28999 7.97445,-2.11088l0,11.25805c-2.57997,1.17271 -5.62903,2.11088 -9.0299,2.57997c-3.51814,0.58636 -7.27083,0.93817 -11.37532,0.93817zm-16.65254,-33.1878l26.38606,0l0,-3.04906c0,-3.16633 -0.93817,-5.7463 -2.81451,-7.50537c-1.87634,-1.87634 -5.04267,-2.81451 -9.49898,-2.81451c-5.27721,0 -8.91263,1.05544 -10.90624,3.16633c-2.11088,2.11088 -3.16633,5.51175 -3.16633,10.20261z" class="st3"/>
    <path id="svg_21" fill="#014884" d="m605.92328,816.91619l0,-75.52277l15.83164,0l0,63.32655l37.17503,0l0,12.19622l-53.00667,0z" class="st3"/>
    <path id="svg_22" fill="#014884" d="m665.2626,816.91619l28.84876,-75.52277l17.35616,0l28.73149,75.52277l-16.41799,0l-7.15355,-18.17706l-27.79332,0l-7.03628,18.17706l-16.53526,0zm25.91698,-30.37329l23.10246,0l-11.60987,-30.37329l-11.4926,30.37329z" class="st3"/>
    <path id="svg_23" fill="#014884" d="m751.22252,816.91619l0,-75.52277l38.23047,0c7.62264,0 13.25167,1.75907 17.00435,5.39448c3.75268,3.51814 5.62903,8.56081 5.62903,15.01074c0,4.1045 -0.8209,7.3881 -2.34543,10.20261c-1.52453,2.69724 -3.63541,4.80813 -6.33265,6.21538c3.51814,1.05544 6.33265,2.93178 8.32627,5.51175c2.11088,2.57997 3.16633,6.21538 3.16633,11.14078c0,7.27083 -2.11088,12.78258 -6.09811,16.41799c-4.1045,3.75268 -9.96807,5.62903 -17.82525,5.62903l-39.755,0zm15.83164,-44.21131l19.46705,0c3.86996,0 6.5672,-0.8209 8.209,-2.4627c1.6418,-1.6418 2.4627,-4.1045 2.4627,-7.15355c0,-3.40087 -0.8209,-5.86357 -2.57997,-7.50537c-1.6418,-1.6418 -4.80813,-2.4627 -9.38171,-2.4627l-18.29434,0l0,19.58432l0.11727,0zm0,32.60144l20.05341,0c3.98723,0 6.91901,-0.8209 8.79535,-2.4627c1.87634,-1.6418 2.81451,-4.57358 2.81451,-8.67808c0,-3.40087 -0.93817,-5.86357 -2.69724,-7.50537c-1.87634,-1.6418 -5.15994,-2.4627 -9.96807,-2.4627l-18.99796,0l0,21.10885z" class="st3"/>
   </g>
  </g>
 </g>
</svg>